ISO-10303-21;
HEADER;
FILE_DESCRIPTION(('FreeCAD Model'),'2;1');
FILE_NAME('Open CASCADE Shape Model','2026-09-13T14:49:19',('FreeCAD'),(
    'FreeCAD'),'Open CASCADE STEP processor 7.8','FreeCAD','Unknown');
FILE_SCHEMA(('AUTOMOTIVE_DESIGN { 1 0 10303 214 1 1 1 1 }'));
ENDSEC;
DATA;
#1 = APPLICATION_PROTOCOL_DEFINITION('international standard',
  'automotive_design',2000,#2);
#2 = APPLICATION_CONTEXT(
  'core data for automotive mechanical design processes');
#3 = SHAPE_DEFINITION_REPRESENTATION(#4,#10);
#4 = PRODUCT_DEFINITION_SHAPE('','',#5);
#5 = PRODUCT_DEFINITION('design','',#6,#9);
#6 = PRODUCT_DEFINITION_FORMATION('','',#7);
#7 = PRODUCT('Open CASCADE STEP translator 7.8 1',
  'Open CASCADE STEP translator 7.8 1','',(#8));
#8 = PRODUCT_CONTEXT('',#2,'mechanical');
#9 = PRODUCT_DEFINITION_CONTEXT('part definition',#2,'design');
#10 = ADVANCED_BREP_SHAPE_REPRESENTATION('',(#11,#15),#1082);
#11 = AXIS2_PLACEMENT_3D('',#12,#13,#14);
#12 = CARTESIAN_POINT('',(0.,0.,0.));
#13 = DIRECTION('',(0.,0.,1.));
#14 = DIRECTION('',(1.,0.,-0.));
#15 = MANIFOLD_SOLID_BREP('',#16);
#16 = CLOSED_SHELL('',(#17,#119,#152,#188,#213,#239,#275,#301,#319,#345,
    #371,#397,#442,#503,#534,#568,#593,#624,#649,#667,#692,#717,#742,
    #760,#786,#804,#838,#869,#886,#917,#941,#952,#978,#1004,#1030,#1041,
    #1059,#1070));
#17 = ADVANCED_FACE('',(#18,#81,#92,#103),#114,.T.);
#18 = FACE_BOUND('',#19,.T.);
#19 = EDGE_LOOP('',(#20,#31,#40,#48,#57,#66,#75));
#20 = ORIENTED_EDGE('',*,*,#21,.T.);
#21 = EDGE_CURVE('',#22,#24,#26,.T.);
#22 = VERTEX_POINT('',#23);
#23 = CARTESIAN_POINT('',(74.759976575617,-105.373554094,4.));
#24 = VERTEX_POINT('',#25);
#25 = CARTESIAN_POINT('',(129.2,-3.552713678801E-14,4.));
#26 = CIRCLE('',#27,129.2);
#27 = AXIS2_PLACEMENT_3D('',#28,#29,#30);
#28 = CARTESIAN_POINT('',(0.,0.,4.));
#29 = DIRECTION('',(-0.,0.,1.));
#30 = DIRECTION('',(0.573576436351,-0.819152044289,0.));
#31 = ORIENTED_EDGE('',*,*,#32,.T.);
#32 = EDGE_CURVE('',#24,#33,#35,.T.);
#33 = VERTEX_POINT('',#34);
#34 = CARTESIAN_POINT('',(74.759976575617,105.37355409405,4.));
#35 = CIRCLE('',#36,129.2);
#36 = AXIS2_PLACEMENT_3D('',#37,#38,#39);
#37 = CARTESIAN_POINT('',(0.,0.,4.));
#38 = DIRECTION('',(0.,0.,1.));
#39 = DIRECTION('',(1.,0.,0.));
#40 = ORIENTED_EDGE('',*,*,#41,.F.);
#41 = EDGE_CURVE('',#42,#33,#44,.T.);
#42 = VERTEX_POINT('',#43);
#43 = CARTESIAN_POINT('',(71.662601851686,100.95004455594,4.));
#44 = LINE('',#45,#46);
#45 = CARTESIAN_POINT('',(71.20522330661,100.29684029846,4.));
#46 = VECTOR('',#47,1.);
#47 = DIRECTION('',(0.573576436351,0.819152044289,0.));
#48 = ORIENTED_EDGE('',*,*,#49,.F.);
#49 = EDGE_CURVE('',#50,#42,#52,.T.);
#50 = VERTEX_POINT('',#51);
#51 = CARTESIAN_POINT('',(69.44272486734,100.55122059427,4.));
#52 = CIRCLE('',#53,1.6);
#53 = AXIS2_PLACEMENT_3D('',#54,#55,#56);
#54 = CARTESIAN_POINT('',(70.351958580824,101.8677668541,4.));
#55 = DIRECTION('',(0.,0.,1.));
#56 = DIRECTION('',(-0.568271070927,-0.822841412392,0.));
#57 = ORIENTED_EDGE('',*,*,#58,.T.);
#58 = EDGE_CURVE('',#50,#59,#61,.T.);
#59 = VERTEX_POINT('',#60);
#60 = CARTESIAN_POINT('',(69.44272486734,-100.5512205942,4.));
#61 = CIRCLE('',#62,122.2);
#62 = AXIS2_PLACEMENT_3D('',#63,#64,#65);
#63 = CARTESIAN_POINT('',(0.,0.,4.));
#64 = DIRECTION('',(0.,-0.,1.));
#65 = DIRECTION('',(0.573576436351,0.819152044289,0.));
#66 = ORIENTED_EDGE('',*,*,#67,.F.);
#67 = EDGE_CURVE('',#68,#59,#70,.T.);
#68 = VERTEX_POINT('',#69);
#69 = CARTESIAN_POINT('',(71.662601851686,-100.9500445559,4.));
#70 = CIRCLE('',#71,1.6);
#71 = AXIS2_PLACEMENT_3D('',#72,#73,#74);
#72 = CARTESIAN_POINT('',(70.351958580824,-101.8677668541,4.));
#73 = DIRECTION('',(0.,-0.,1.));
#74 = DIRECTION('',(0.819152044289,0.573576436351,0.));
#75 = ORIENTED_EDGE('',*,*,#76,.T.);
#76 = EDGE_CURVE('',#68,#22,#77,.T.);
#77 = LINE('',#78,#79);
#78 = CARTESIAN_POINT('',(71.20522330661,-100.2968402984,4.));
#79 = VECTOR('',#80,1.);
#80 = DIRECTION('',(0.573576436351,-0.819152044289,0.));
#81 = FACE_BOUND('',#82,.T.);
#82 = EDGE_LOOP('',(#83));
#83 = ORIENTED_EDGE('',*,*,#84,.F.);
#84 = EDGE_CURVE('',#85,#85,#87,.T.);
#85 = VERTEX_POINT('',#86);
#86 = CARTESIAN_POINT('',(-95.68680304487,-36.93817547917,4.));
#87 = CIRCLE('',#88,5.8);
#88 = AXIS2_PLACEMENT_3D('',#89,#90,#91);
#89 = CARTESIAN_POINT('',(-101.4868030448,-36.93817547917,4.));
#90 = DIRECTION('',(0.,0.,1.));
#91 = DIRECTION('',(1.,0.,0.));
#92 = FACE_BOUND('',#93,.T.);
#93 = EDGE_LOOP('',(#94));
#94 = ORIENTED_EDGE('',*,*,#95,.F.);
#95 = EDGE_CURVE('',#96,#96,#98,.T.);
#96 = VERTEX_POINT('',#97);
#97 = CARTESIAN_POINT('',(-102.2,1.322618543079E-14,4.));
#98 = CIRCLE('',#99,5.8);
#99 = AXIS2_PLACEMENT_3D('',#100,#101,#102);
#100 = CARTESIAN_POINT('',(-108.,1.322618543079E-14,4.));
#101 = DIRECTION('',(0.,0.,1.));
#102 = DIRECTION('',(1.,0.,0.));
#103 = FACE_BOUND('',#104,.T.);
#104 = EDGE_LOOP('',(#105));
#105 = ORIENTED_EDGE('',*,*,#106,.F.);
#106 = EDGE_CURVE('',#107,#107,#109,.T.);
#107 = VERTEX_POINT('',#108);
#108 = CARTESIAN_POINT('',(-95.68680304487,36.938175479172,4.));
#109 = CIRCLE('',#110,5.8);
#110 = AXIS2_PLACEMENT_3D('',#111,#112,#113);
#111 = CARTESIAN_POINT('',(-101.4868030448,36.938175479172,4.));
#112 = DIRECTION('',(0.,0.,1.));
#113 = DIRECTION('',(1.,0.,0.));
#114 = PLANE('',#115);
#115 = AXIS2_PLACEMENT_3D('',#116,#117,#118);
#116 = CARTESIAN_POINT('',(0.,0.,4.));
#117 = DIRECTION('',(0.,0.,1.));
#118 = DIRECTION('',(1.,0.,0.));
#119 = ADVANCED_FACE('',(#120),#147,.T.);
#120 = FACE_BOUND('',#121,.F.);
#121 = EDGE_LOOP('',(#122,#130,#131,#140));
#122 = ORIENTED_EDGE('',*,*,#123,.T.);
#123 = EDGE_CURVE('',#124,#22,#126,.T.);
#124 = VERTEX_POINT('',#125);
#125 = CARTESIAN_POINT('',(75.222886647292,-106.0260219212,3.2));
#126 = ( BOUNDED_CURVE() B_SPLINE_CURVE(2,(#127,#128,#129),
.UNSPECIFIED.,.F.,.F.) B_SPLINE_CURVE_WITH_KNOTS((3,3),(0.,
1.570796326795),.PIECEWISE_BEZIER_KNOTS.) CURVE() 
GEOMETRIC_REPRESENTATION_ITEM() RATIONAL_B_SPLINE_CURVE((1.,
0.707106781187,1.)) REPRESENTATION_ITEM('') );
#127 = CARTESIAN_POINT('',(75.222886647292,-106.0260219212,3.2));
#128 = CARTESIAN_POINT('',(75.222886647292,-106.0260219212,4.));
#129 = CARTESIAN_POINT('',(74.759976575617,-105.373554094,4.));
#130 = ORIENTED_EDGE('',*,*,#21,.T.);
#131 = ORIENTED_EDGE('',*,*,#132,.T.);
#132 = EDGE_CURVE('',#24,#133,#135,.T.);
#133 = VERTEX_POINT('',#134);
#134 = CARTESIAN_POINT('',(130.,-3.552713678801E-14,3.2));
#135 = CIRCLE('',#136,0.8);
#136 = AXIS2_PLACEMENT_3D('',#137,#138,#139);
#137 = CARTESIAN_POINT('',(129.2,-3.586020369539E-14,3.2));
#138 = DIRECTION('',(2.775557561563E-16,1.,0.));
#139 = DIRECTION('',(1.,-2.775557561563E-16,0.));
#140 = ORIENTED_EDGE('',*,*,#141,.F.);
#141 = EDGE_CURVE('',#124,#133,#142,.T.);
#142 = CIRCLE('',#143,130.);
#143 = AXIS2_PLACEMENT_3D('',#144,#145,#146);
#144 = CARTESIAN_POINT('',(0.,0.,3.2));
#145 = DIRECTION('',(-0.,0.,1.));
#146 = DIRECTION('',(0.573576436351,-0.819152044289,0.));
#147 = TOROIDAL_SURFACE('',#148,129.2,0.8);
#148 = AXIS2_PLACEMENT_3D('',#149,#150,#151);
#149 = CARTESIAN_POINT('',(0.,0.,3.2));
#150 = DIRECTION('',(-0.,-0.,-1.));
#151 = DIRECTION('',(0.573576436351,-0.819152044289,0.));
#152 = ADVANCED_FACE('',(#153),#183,.F.);
#153 = FACE_BOUND('',#154,.T.);
#154 = EDGE_LOOP('',(#155,#164,#172,#182));
#155 = ORIENTED_EDGE('',*,*,#156,.T.);
#156 = EDGE_CURVE('',#68,#157,#159,.T.);
#157 = VERTEX_POINT('',#158);
#158 = CARTESIAN_POINT('',(71.007280216255,-101.408905705,4.8));
#159 = CIRCLE('',#160,0.8);
#160 = AXIS2_PLACEMENT_3D('',#161,#162,#163);
#161 = CARTESIAN_POINT('',(71.662601851686,-100.9500445559,4.8));
#162 = DIRECTION('',(-0.573576436351,0.819152044289,0.));
#163 = DIRECTION('',(0.819152044289,0.573576436351,0.));
#164 = ORIENTED_EDGE('',*,*,#165,.T.);
#165 = EDGE_CURVE('',#157,#166,#168,.T.);
#166 = VERTEX_POINT('',#167);
#167 = CARTESIAN_POINT('',(74.104654940186,-105.8324152431,4.8));
#168 = LINE('',#169,#170);
#169 = CARTESIAN_POINT('',(70.549901671179,-100.7557014475,4.8));
#170 = VECTOR('',#171,1.);
#171 = DIRECTION('',(0.573576436351,-0.819152044289,0.));
#172 = ORIENTED_EDGE('',*,*,#173,.T.);
#173 = EDGE_CURVE('',#166,#22,#174,.T.);
#174 = ( BOUNDED_CURVE() B_SPLINE_CURVE(6,(#175,#176,#177,#178,#179,#180
,#181),.UNSPECIFIED.,.F.,.F.) B_SPLINE_CURVE_WITH_KNOTS((7,7),(0.,
1.570796326795),.PIECEWISE_BEZIER_KNOTS.) CURVE() 
GEOMETRIC_REPRESENTATION_ITEM() RATIONAL_B_SPLINE_CURVE((1.,1.,1.,1.,1.,
1.,1.)) REPRESENTATION_ITEM('') );
#175 = CARTESIAN_POINT('',(74.104654940186,-105.8324152431,4.8));
#176 = CARTESIAN_POINT('',(74.104654940186,-105.8324152431,
    4.590564504781));
#177 = CARTESIAN_POINT('',(74.159001688633,-105.7953467132,
    4.381148921843));
#178 = CARTESIAN_POINT('',(74.267845301094,-105.7212530409,
    4.197443040448));
#179 = CARTESIAN_POINT('',(74.418933513298,-105.6167298108,
    4.065772715167));
#180 = CARTESIAN_POINT('',(74.589911254576,-105.4958012888,4.));
#181 = CARTESIAN_POINT('',(74.759976575617,-105.373554094,4.));
#182 = ORIENTED_EDGE('',*,*,#76,.F.);
#183 = CYLINDRICAL_SURFACE('',#184,0.8);
#184 = AXIS2_PLACEMENT_3D('',#185,#186,#187);
#185 = CARTESIAN_POINT('',(71.20522330661,-100.2968402984,4.8));
#186 = DIRECTION('',(0.573576436351,-0.819152044289,0.));
#187 = DIRECTION('',(0.,0.,-1.));
#188 = ADVANCED_FACE('',(#189),#208,.T.);
#189 = FACE_BOUND('',#190,.F.);
#190 = EDGE_LOOP('',(#191,#192,#193,#201));
#191 = ORIENTED_EDGE('',*,*,#132,.F.);
#192 = ORIENTED_EDGE('',*,*,#32,.T.);
#193 = ORIENTED_EDGE('',*,*,#194,.F.);
#194 = EDGE_CURVE('',#195,#33,#197,.T.);
#195 = VERTEX_POINT('',#196);
#196 = CARTESIAN_POINT('',(75.222886647292,106.02602192126,3.2));
#197 = ( BOUNDED_CURVE() B_SPLINE_CURVE(2,(#198,#199,#200),
.UNSPECIFIED.,.F.,.F.) B_SPLINE_CURVE_WITH_KNOTS((3,3),(0.,
1.570796326795),.PIECEWISE_BEZIER_KNOTS.) CURVE() 
GEOMETRIC_REPRESENTATION_ITEM() RATIONAL_B_SPLINE_CURVE((1.,
0.707106781187,1.)) REPRESENTATION_ITEM('') );
#198 = CARTESIAN_POINT('',(75.222886647292,106.02602192126,3.2));
#199 = CARTESIAN_POINT('',(75.222886647292,106.02602192126,4.));
#200 = CARTESIAN_POINT('',(74.759976575617,105.37355409405,4.));
#201 = ORIENTED_EDGE('',*,*,#202,.F.);
#202 = EDGE_CURVE('',#133,#195,#203,.T.);
#203 = CIRCLE('',#204,130.);
#204 = AXIS2_PLACEMENT_3D('',#205,#206,#207);
#205 = CARTESIAN_POINT('',(0.,0.,3.2));
#206 = DIRECTION('',(0.,0.,1.));
#207 = DIRECTION('',(1.,0.,0.));
#208 = TOROIDAL_SURFACE('',#209,129.2,0.8);
#209 = AXIS2_PLACEMENT_3D('',#210,#211,#212);
#210 = CARTESIAN_POINT('',(0.,0.,3.2));
#211 = DIRECTION('',(-0.,-0.,-1.));
#212 = DIRECTION('',(1.,0.,0.));
#213 = ADVANCED_FACE('',(#214),#234,.F.);
#214 = FACE_BOUND('',#215,.T.);
#215 = EDGE_LOOP('',(#216,#217,#218,#227));
#216 = ORIENTED_EDGE('',*,*,#156,.F.);
#217 = ORIENTED_EDGE('',*,*,#67,.T.);
#218 = ORIENTED_EDGE('',*,*,#219,.T.);
#219 = EDGE_CURVE('',#59,#220,#222,.T.);
#220 = VERTEX_POINT('',#221);
#221 = CARTESIAN_POINT('',(69.897341724082,-101.2094937241,4.8));
#222 = CIRCLE('',#223,0.8);
#223 = AXIS2_PLACEMENT_3D('',#224,#225,#226);
#224 = CARTESIAN_POINT('',(69.44272486734,-100.5512205942,4.8));
#225 = DIRECTION('',(-0.822841412392,-0.568271070928,-0.));
#226 = DIRECTION('',(-0.568271070928,0.822841412392,0.));
#227 = ORIENTED_EDGE('',*,*,#228,.F.);
#228 = EDGE_CURVE('',#157,#220,#229,.T.);
#229 = CIRCLE('',#230,0.8);
#230 = AXIS2_PLACEMENT_3D('',#231,#232,#233);
#231 = CARTESIAN_POINT('',(70.351958580824,-101.8677668541,4.8));
#232 = DIRECTION('',(0.,-0.,1.));
#233 = DIRECTION('',(0.819152044289,0.573576436351,0.));
#234 = TOROIDAL_SURFACE('',#235,1.6,0.8);
#235 = AXIS2_PLACEMENT_3D('',#236,#237,#238);
#236 = CARTESIAN_POINT('',(70.351958580824,-101.8677668541,4.8));
#237 = DIRECTION('',(-0.,-0.,-1.));
#238 = DIRECTION('',(0.819152044289,0.573576436351,0.));
#239 = ADVANCED_FACE('',(#240),#270,.F.);
#240 = FACE_BOUND('',#241,.F.);
#241 = EDGE_LOOP('',(#242,#251,#259,#269));
#242 = ORIENTED_EDGE('',*,*,#243,.T.);
#243 = EDGE_CURVE('',#42,#244,#246,.T.);
#244 = VERTEX_POINT('',#245);
#245 = CARTESIAN_POINT('',(71.007280216255,101.40890570502,4.8));
#246 = CIRCLE('',#247,0.8);
#247 = AXIS2_PLACEMENT_3D('',#248,#249,#250);
#248 = CARTESIAN_POINT('',(71.662601851686,100.95004455594,4.8));
#249 = DIRECTION('',(0.573576436351,0.819152044289,0.));
#250 = DIRECTION('',(0.819152044289,-0.573576436351,0.));
#251 = ORIENTED_EDGE('',*,*,#252,.T.);
#252 = EDGE_CURVE('',#244,#253,#255,.T.);
#253 = VERTEX_POINT('',#254);
#254 = CARTESIAN_POINT('',(74.104654940186,105.83241524313,4.8));
#255 = LINE('',#256,#257);
#256 = CARTESIAN_POINT('',(70.549901671179,100.75570144754,4.8));
#257 = VECTOR('',#258,1.);
#258 = DIRECTION('',(0.573576436351,0.819152044289,0.));
#259 = ORIENTED_EDGE('',*,*,#260,.T.);
#260 = EDGE_CURVE('',#253,#33,#261,.T.);
#261 = ( BOUNDED_CURVE() B_SPLINE_CURVE(6,(#262,#263,#264,#265,#266,#267
,#268),.UNSPECIFIED.,.F.,.F.) B_SPLINE_CURVE_WITH_KNOTS((7,7),(0.,
1.570796326795),.PIECEWISE_BEZIER_KNOTS.) CURVE() 
GEOMETRIC_REPRESENTATION_ITEM() RATIONAL_B_SPLINE_CURVE((1.,1.,1.,1.,1.,
1.,1.)) REPRESENTATION_ITEM('') );
#262 = CARTESIAN_POINT('',(74.104654940186,105.83241524313,4.8));
#263 = CARTESIAN_POINT('',(74.104654940186,105.83241524313,
    4.590564504781));
#264 = CARTESIAN_POINT('',(74.159001688634,105.79534671325,
    4.381148921843));
#265 = CARTESIAN_POINT('',(74.267845301094,105.72125304093,
    4.197443040448));
#266 = CARTESIAN_POINT('',(74.418933513298,105.61672981082,
    4.065772715167));
#267 = CARTESIAN_POINT('',(74.589911254576,105.49580128881,4.));
#268 = CARTESIAN_POINT('',(74.759976575617,105.37355409405,4.));
#269 = ORIENTED_EDGE('',*,*,#41,.F.);
#270 = CYLINDRICAL_SURFACE('',#271,0.8);
#271 = AXIS2_PLACEMENT_3D('',#272,#273,#274);
#272 = CARTESIAN_POINT('',(71.20522330661,100.29684029846,4.8));
#273 = DIRECTION('',(0.573576436351,0.819152044289,0.));
#274 = DIRECTION('',(0.,0.,-1.));
#275 = ADVANCED_FACE('',(#276),#296,.F.);
#276 = FACE_BOUND('',#277,.F.);
#277 = EDGE_LOOP('',(#278,#287,#288,#289));
#278 = ORIENTED_EDGE('',*,*,#279,.F.);
#279 = EDGE_CURVE('',#50,#280,#282,.T.);
#280 = VERTEX_POINT('',#281);
#281 = CARTESIAN_POINT('',(69.897341724082,101.20949372419,4.8));
#282 = CIRCLE('',#283,0.8);
#283 = AXIS2_PLACEMENT_3D('',#284,#285,#286);
#284 = CARTESIAN_POINT('',(69.44272486734,100.55122059427,4.8));
#285 = DIRECTION('',(0.822841412392,-0.568271070927,0.));
#286 = DIRECTION('',(-0.568271070927,-0.822841412392,0.));
#287 = ORIENTED_EDGE('',*,*,#58,.T.);
#288 = ORIENTED_EDGE('',*,*,#219,.T.);
#289 = ORIENTED_EDGE('',*,*,#290,.F.);
#290 = EDGE_CURVE('',#280,#220,#291,.T.);
#291 = CIRCLE('',#292,123.);
#292 = AXIS2_PLACEMENT_3D('',#293,#294,#295);
#293 = CARTESIAN_POINT('',(0.,0.,4.8));
#294 = DIRECTION('',(0.,-0.,1.));
#295 = DIRECTION('',(0.573576436351,0.819152044289,0.));
#296 = TOROIDAL_SURFACE('',#297,122.2,0.8);
#297 = AXIS2_PLACEMENT_3D('',#298,#299,#300);
#298 = CARTESIAN_POINT('',(0.,0.,4.8));
#299 = DIRECTION('',(0.,0.,1.));
#300 = DIRECTION('',(0.573576436351,0.819152044289,0.));
#301 = ADVANCED_FACE('',(#302),#314,.F.);
#302 = FACE_BOUND('',#303,.T.);
#303 = EDGE_LOOP('',(#304,#305,#306,#307));
#304 = ORIENTED_EDGE('',*,*,#279,.F.);
#305 = ORIENTED_EDGE('',*,*,#49,.T.);
#306 = ORIENTED_EDGE('',*,*,#243,.T.);
#307 = ORIENTED_EDGE('',*,*,#308,.F.);
#308 = EDGE_CURVE('',#280,#244,#309,.T.);
#309 = CIRCLE('',#310,0.8);
#310 = AXIS2_PLACEMENT_3D('',#311,#312,#313);
#311 = CARTESIAN_POINT('',(70.351958580824,101.8677668541,4.8));
#312 = DIRECTION('',(0.,0.,1.));
#313 = DIRECTION('',(-0.568271070927,-0.822841412392,0.));
#314 = TOROIDAL_SURFACE('',#315,1.6,0.8);
#315 = AXIS2_PLACEMENT_3D('',#316,#317,#318);
#316 = CARTESIAN_POINT('',(70.351958580824,101.8677668541,4.8));
#317 = DIRECTION('',(-0.,-0.,-1.));
#318 = DIRECTION('',(-0.568271070927,-0.822841412392,0.));
#319 = ADVANCED_FACE('',(#320),#340,.T.);
#320 = FACE_BOUND('',#321,.T.);
#321 = EDGE_LOOP('',(#322,#331,#332,#333));
#322 = ORIENTED_EDGE('',*,*,#323,.F.);
#323 = EDGE_CURVE('',#85,#324,#326,.T.);
#324 = VERTEX_POINT('',#325);
#325 = CARTESIAN_POINT('',(-96.48680304487,-36.93817547917,3.2));
#326 = CIRCLE('',#327,0.8);
#327 = AXIS2_PLACEMENT_3D('',#328,#329,#330);
#328 = CARTESIAN_POINT('',(-95.68680304487,-36.93817547917,3.2));
#329 = DIRECTION('',(0.,-1.,0.));
#330 = DIRECTION('',(1.,0.,0.));
#331 = ORIENTED_EDGE('',*,*,#84,.T.);
#332 = ORIENTED_EDGE('',*,*,#323,.T.);
#333 = ORIENTED_EDGE('',*,*,#334,.F.);
#334 = EDGE_CURVE('',#324,#324,#335,.T.);
#335 = CIRCLE('',#336,5.);
#336 = AXIS2_PLACEMENT_3D('',#337,#338,#339);
#337 = CARTESIAN_POINT('',(-101.4868030448,-36.93817547917,3.2));
#338 = DIRECTION('',(0.,0.,1.));
#339 = DIRECTION('',(1.,0.,0.));
#340 = TOROIDAL_SURFACE('',#341,5.8,0.8);
#341 = AXIS2_PLACEMENT_3D('',#342,#343,#344);
#342 = CARTESIAN_POINT('',(-101.4868030448,-36.93817547917,3.2));
#343 = DIRECTION('',(0.,0.,1.));
#344 = DIRECTION('',(1.,0.,0.));
#345 = ADVANCED_FACE('',(#346),#366,.T.);
#346 = FACE_BOUND('',#347,.T.);
#347 = EDGE_LOOP('',(#348,#357,#358,#359));
#348 = ORIENTED_EDGE('',*,*,#349,.F.);
#349 = EDGE_CURVE('',#96,#350,#352,.T.);
#350 = VERTEX_POINT('',#351);
#351 = CARTESIAN_POINT('',(-103.,1.322618543079E-14,3.2));
#352 = CIRCLE('',#353,0.8);
#353 = AXIS2_PLACEMENT_3D('',#354,#355,#356);
#354 = CARTESIAN_POINT('',(-102.2,1.322618543079E-14,3.2));
#355 = DIRECTION('',(0.,-1.,0.));
#356 = DIRECTION('',(1.,0.,0.));
#357 = ORIENTED_EDGE('',*,*,#95,.T.);
#358 = ORIENTED_EDGE('',*,*,#349,.T.);
#359 = ORIENTED_EDGE('',*,*,#360,.F.);
#360 = EDGE_CURVE('',#350,#350,#361,.T.);
#361 = CIRCLE('',#362,5.);
#362 = AXIS2_PLACEMENT_3D('',#363,#364,#365);
#363 = CARTESIAN_POINT('',(-108.,1.322618543079E-14,3.2));
#364 = DIRECTION('',(0.,0.,1.));
#365 = DIRECTION('',(1.,0.,0.));
#366 = TOROIDAL_SURFACE('',#367,5.8,0.8);
#367 = AXIS2_PLACEMENT_3D('',#368,#369,#370);
#368 = CARTESIAN_POINT('',(-108.,1.322618543079E-14,3.2));
#369 = DIRECTION('',(0.,0.,1.));
#370 = DIRECTION('',(1.,0.,0.));
#371 = ADVANCED_FACE('',(#372),#392,.T.);
#372 = FACE_BOUND('',#373,.T.);
#373 = EDGE_LOOP('',(#374,#383,#384,#385));
#374 = ORIENTED_EDGE('',*,*,#375,.F.);
#375 = EDGE_CURVE('',#107,#376,#378,.T.);
#376 = VERTEX_POINT('',#377);
#377 = CARTESIAN_POINT('',(-96.48680304487,36.938175479172,3.2));
#378 = CIRCLE('',#379,0.8);
#379 = AXIS2_PLACEMENT_3D('',#380,#381,#382);
#380 = CARTESIAN_POINT('',(-95.68680304487,36.938175479172,3.2));
#381 = DIRECTION('',(0.,-1.,0.));
#382 = DIRECTION('',(1.,0.,0.));
#383 = ORIENTED_EDGE('',*,*,#106,.T.);
#384 = ORIENTED_EDGE('',*,*,#375,.T.);
#385 = ORIENTED_EDGE('',*,*,#386,.F.);
#386 = EDGE_CURVE('',#376,#376,#387,.T.);
#387 = CIRCLE('',#388,5.);
#388 = AXIS2_PLACEMENT_3D('',#389,#390,#391);
#389 = CARTESIAN_POINT('',(-101.4868030448,36.938175479172,3.2));
#390 = DIRECTION('',(0.,0.,1.));
#391 = DIRECTION('',(1.,0.,0.));
#392 = TOROIDAL_SURFACE('',#393,5.8,0.8);
#393 = AXIS2_PLACEMENT_3D('',#394,#395,#396);
#394 = CARTESIAN_POINT('',(-101.4868030448,36.938175479172,3.2));
#395 = DIRECTION('',(0.,0.,1.));
#396 = DIRECTION('',(1.,0.,0.));
#397 = ADVANCED_FACE('',(#398),#420,.F.);
#398 = FACE_BOUND('',#399,.F.);
#399 = EDGE_LOOP('',(#400,#408,#409,#410));
#400 = ORIENTED_EDGE('',*,*,#401,.T.);
#401 = EDGE_CURVE('',#402,#166,#404,.T.);
#402 = VERTEX_POINT('',#403);
#403 = CARTESIAN_POINT('',(73.90412793822,-106.9494267104,4.8));
#404 = ( BOUNDED_CURVE() B_SPLINE_CURVE(2,(#405,#406,#407),
.UNSPECIFIED.,.F.,.F.) B_SPLINE_CURVE_WITH_KNOTS((3,3),(0.,
1.570796326795),.PIECEWISE_BEZIER_KNOTS.) CURVE() 
GEOMETRIC_REPRESENTATION_ITEM() RATIONAL_B_SPLINE_CURVE((1.,
0.704914196742,1.)) REPRESENTATION_ITEM('') );
#405 = CARTESIAN_POINT('',(73.90412793822,-106.9494267104,4.8));
#406 = CARTESIAN_POINT('',(74.566366185919,-106.4918072384,4.8));
#407 = CARTESIAN_POINT('',(74.104654940186,-105.8324152431,4.8));
#408 = ORIENTED_EDGE('',*,*,#173,.T.);
#409 = ORIENTED_EDGE('',*,*,#123,.F.);
#410 = ORIENTED_EDGE('',*,*,#411,.F.);
#411 = EDGE_CURVE('',#402,#124,#412,.T.);
#412 = ( BOUNDED_CURVE() B_SPLINE_CURVE(6,(#413,#414,#415,#416,#417,#418
,#419),.UNSPECIFIED.,.F.,.F.) B_SPLINE_CURVE_WITH_KNOTS((7,7),(0.,
1.570796326795),.PIECEWISE_BEZIER_KNOTS.) CURVE() 
GEOMETRIC_REPRESENTATION_ITEM() RATIONAL_B_SPLINE_CURVE((1.,1.,1.,1.,1.,
1.,1.)) REPRESENTATION_ITEM('') );
#413 = CARTESIAN_POINT('',(73.90412793822,-106.9494267104,4.8));
#414 = CARTESIAN_POINT('',(73.90412793822,-106.9494267104,4.378535381138
    ));
#415 = CARTESIAN_POINT('',(74.014281569149,-106.8732878032,
    3.957036923779));
#416 = CARTESIAN_POINT('',(74.235469665003,-106.720545052,3.589578959774
    ));
#417 = CARTESIAN_POINT('',(74.538777195004,-106.5094140565,
    3.330050465081));
#418 = CARTESIAN_POINT('',(74.881255291849,-106.268401068,3.2));
#419 = CARTESIAN_POINT('',(75.222886647292,-106.0260219212,3.2));
#420 = ( BOUNDED_SURFACE() B_SPLINE_SURFACE(2,6,(
    (#421,#422,#423,#424,#425,#426,#427)
    ,(#428,#429,#430,#431,#432,#433,#434)
    ,(#435,#436,#437,#438,#439,#440,#441
)),.UNSPECIFIED.,.F.,.F.,.F.) B_SPLINE_SURFACE_WITH_KNOTS((3,3),(7,7),(
    0.,1.570796326795),(0.,1.570796326795),.PIECEWISE_BEZIER_KNOTS.) 
GEOMETRIC_REPRESENTATION_ITEM() RATIONAL_B_SPLINE_SURFACE((
    (1.,1.,1.,1.,1.,1.,1.)
    ,(0.704914196742,0.704914196742,0.705452560102,0.706584047715
      ,0.707543540636,0.707679875541,0.707106781187)
,(1.,1.,1.,1.,1.,1.,1.))) REPRESENTATION_ITEM('') SURFACE() );
#421 = CARTESIAN_POINT('',(73.90412793822,-106.9494267104,4.8));
#422 = CARTESIAN_POINT('',(73.90412793822,-106.9494267104,4.378535381138
    ));
#423 = CARTESIAN_POINT('',(74.014281569149,-106.8732878032,
    3.957036923779));
#424 = CARTESIAN_POINT('',(74.235469665003,-106.720545052,3.589578959774
    ));
#425 = CARTESIAN_POINT('',(74.538777195004,-106.5094140565,
    3.330050465081));
#426 = CARTESIAN_POINT('',(74.881255291849,-106.268401068,3.2));
#427 = CARTESIAN_POINT('',(75.222886647292,-106.0260219212,3.2));
#428 = CARTESIAN_POINT('',(74.566366185919,-106.4918072384,4.8));
#429 = CARTESIAN_POINT('',(74.566366185919,-106.4918072384,4.58925961073
    ));
#430 = CARTESIAN_POINT('',(74.620667385986,-106.4532758838,
    4.378898350626));
#431 = CARTESIAN_POINT('',(74.728889942547,-106.3764791479,
    4.194763352351));
#432 = CARTESIAN_POINT('',(74.880470948338,-106.2689589443,4.06309709682
    ));
#433 = CARTESIAN_POINT('',(75.052209299773,-106.1471133527,
    3.998704285654));
#434 = CARTESIAN_POINT('',(75.222886647292,-106.0260219212,4.));
#435 = CARTESIAN_POINT('',(74.104654940186,-105.8324152431,4.8));
#436 = CARTESIAN_POINT('',(74.104654940186,-105.8324152431,
    4.590564504781));
#437 = CARTESIAN_POINT('',(74.159001688633,-105.7953467132,
    4.381148921843));
#438 = CARTESIAN_POINT('',(74.267845301094,-105.7212530409,
    4.197443040448));
#439 = CARTESIAN_POINT('',(74.418933513298,-105.6167298108,
    4.065772715167));
#440 = CARTESIAN_POINT('',(74.589911254576,-105.4958012888,4.));
#441 = CARTESIAN_POINT('',(74.759976575617,-105.373554094,4.));
#442 = ADVANCED_FACE('',(#443),#498,.T.);
#443 = FACE_BOUND('',#444,.T.);
#444 = EDGE_LOOP('',(#445,#452,#459,#460,#461,#462,#470,#479,#487,#497)
  );
#445 = ORIENTED_EDGE('',*,*,#446,.F.);
#446 = EDGE_CURVE('',#447,#133,#449,.T.);
#447 = VERTEX_POINT('',#448);
#448 = CARTESIAN_POINT('',(130.,0.,0.8));
#449 = B_SPLINE_CURVE_WITH_KNOTS('',1,(#450,#451),.UNSPECIFIED.,.F.,.F.,
  (2,2),(0.,4.),.PIECEWISE_BEZIER_KNOTS.);
#450 = CARTESIAN_POINT('',(130.,-3.184081677783E-14,0.));
#451 = CARTESIAN_POINT('',(130.,-3.184081677783E-14,4.));
#452 = ORIENTED_EDGE('',*,*,#453,.T.);
#453 = EDGE_CURVE('',#447,#447,#454,.T.);
#454 = CIRCLE('',#455,130.);
#455 = AXIS2_PLACEMENT_3D('',#456,#457,#458);
#456 = CARTESIAN_POINT('',(0.,0.,0.8));
#457 = DIRECTION('',(0.,0.,1.));
#458 = DIRECTION('',(1.,0.,0.));
#459 = ORIENTED_EDGE('',*,*,#446,.T.);
#460 = ORIENTED_EDGE('',*,*,#141,.F.);
#461 = ORIENTED_EDGE('',*,*,#411,.F.);
#462 = ORIENTED_EDGE('',*,*,#463,.T.);
#463 = EDGE_CURVE('',#402,#464,#466,.T.);
#464 = VERTEX_POINT('',#465);
#465 = CARTESIAN_POINT('',(73.90412793822,-106.9494267104,31.2));
#466 = LINE('',#467,#468);
#467 = CARTESIAN_POINT('',(73.90412793822,-106.9494267104,4.));
#468 = VECTOR('',#469,1.);
#469 = DIRECTION('',(0.,0.,1.));
#470 = ORIENTED_EDGE('',*,*,#471,.F.);
#471 = EDGE_CURVE('',#472,#464,#474,.T.);
#472 = VERTEX_POINT('',#473);
#473 = CARTESIAN_POINT('',(73.90412793822,106.94942671043,31.2));
#474 = CIRCLE('',#475,130.);
#475 = AXIS2_PLACEMENT_3D('',#476,#477,#478);
#476 = CARTESIAN_POINT('',(0.,0.,31.2));
#477 = DIRECTION('',(0.,-0.,1.));
#478 = DIRECTION('',(0.573576436351,0.819152044289,0.));
#479 = ORIENTED_EDGE('',*,*,#480,.F.);
#480 = EDGE_CURVE('',#481,#472,#483,.T.);
#481 = VERTEX_POINT('',#482);
#482 = CARTESIAN_POINT('',(73.90412793822,106.94942671043,4.8));
#483 = LINE('',#484,#485);
#484 = CARTESIAN_POINT('',(73.90412793822,106.94942671043,4.));
#485 = VECTOR('',#486,1.);
#486 = DIRECTION('',(0.,0.,1.));
#487 = ORIENTED_EDGE('',*,*,#488,.T.);
#488 = EDGE_CURVE('',#481,#195,#489,.T.);
#489 = ( BOUNDED_CURVE() B_SPLINE_CURVE(6,(#490,#491,#492,#493,#494,#495
,#496),.UNSPECIFIED.,.F.,.F.) B_SPLINE_CURVE_WITH_KNOTS((7,7),(0.,
1.570796326795),.PIECEWISE_BEZIER_KNOTS.) CURVE() 
GEOMETRIC_REPRESENTATION_ITEM() RATIONAL_B_SPLINE_CURVE((1.,1.,1.,1.,1.,
1.,1.)) REPRESENTATION_ITEM('') );
#490 = CARTESIAN_POINT('',(73.90412793822,106.94942671043,4.8));
#491 = CARTESIAN_POINT('',(73.90412793822,106.94942671043,4.378535381138
    ));
#492 = CARTESIAN_POINT('',(74.014281569148,106.87328780325,
    3.957036923779));
#493 = CARTESIAN_POINT('',(74.235469665003,106.72054505207,
    3.589578959774));
#494 = CARTESIAN_POINT('',(74.538777195004,106.50941405658,
    3.330050465081));
#495 = CARTESIAN_POINT('',(74.881255291849,106.268401068,3.2));
#496 = CARTESIAN_POINT('',(75.222886647292,106.02602192126,3.2));
#497 = ORIENTED_EDGE('',*,*,#202,.F.);
#498 = CYLINDRICAL_SURFACE('',#499,130.);
#499 = AXIS2_PLACEMENT_3D('',#500,#501,#502);
#500 = CARTESIAN_POINT('',(0.,0.,0.));
#501 = DIRECTION('',(0.,0.,1.));
#502 = DIRECTION('',(1.,0.,0.));
#503 = ADVANCED_FACE('',(#504),#529,.F.);
#504 = FACE_BOUND('',#505,.F.);
#505 = EDGE_LOOP('',(#506,#507,#515,#523));
#506 = ORIENTED_EDGE('',*,*,#165,.T.);
#507 = ORIENTED_EDGE('',*,*,#508,.T.);
#508 = EDGE_CURVE('',#166,#509,#511,.T.);
#509 = VERTEX_POINT('',#510);
#510 = CARTESIAN_POINT('',(74.104654940186,-105.8324152431,31.2));
#511 = LINE('',#512,#513);
#512 = CARTESIAN_POINT('',(74.104654940186,-105.8324152431,4.));
#513 = VECTOR('',#514,1.);
#514 = DIRECTION('',(0.,0.,1.));
#515 = ORIENTED_EDGE('',*,*,#516,.F.);
#516 = EDGE_CURVE('',#517,#509,#519,.T.);
#517 = VERTEX_POINT('',#518);
#518 = CARTESIAN_POINT('',(71.007280216255,-101.408905705,31.2));
#519 = LINE('',#520,#521);
#520 = CARTESIAN_POINT('',(70.549901671179,-100.7557014475,31.2));
#521 = VECTOR('',#522,1.);
#522 = DIRECTION('',(0.573576436351,-0.819152044289,0.));
#523 = ORIENTED_EDGE('',*,*,#524,.F.);
#524 = EDGE_CURVE('',#157,#517,#525,.T.);
#525 = LINE('',#526,#527);
#526 = CARTESIAN_POINT('',(71.007280216255,-101.408905705,4.));
#527 = VECTOR('',#528,1.);
#528 = DIRECTION('',(0.,0.,1.));
#529 = PLANE('',#530);
#530 = AXIS2_PLACEMENT_3D('',#531,#532,#533);
#531 = CARTESIAN_POINT('',(0.,0.,-6.));
#532 = DIRECTION('',(-0.819152044289,-0.573576436351,0.));
#533 = DIRECTION('',(0.573576436351,-0.819152044289,0.));
#534 = ADVANCED_FACE('',(#535),#546,.T.);
#535 = FACE_BOUND('',#536,.T.);
#536 = EDGE_LOOP('',(#537,#543,#544,#545));
#537 = ORIENTED_EDGE('',*,*,#538,.T.);
#538 = EDGE_CURVE('',#481,#253,#539,.T.);
#539 = ( BOUNDED_CURVE() B_SPLINE_CURVE(2,(#540,#541,#542),
.UNSPECIFIED.,.F.,.F.) B_SPLINE_CURVE_WITH_KNOTS((3,3),(0.,
1.570796326795),.PIECEWISE_BEZIER_KNOTS.) CURVE() 
GEOMETRIC_REPRESENTATION_ITEM() RATIONAL_B_SPLINE_CURVE((1.,
0.704914196742,1.)) REPRESENTATION_ITEM('') );
#540 = CARTESIAN_POINT('',(73.90412793822,106.94942671043,4.8));
#541 = CARTESIAN_POINT('',(74.566366185919,106.49180723842,4.8));
#542 = CARTESIAN_POINT('',(74.104654940186,105.83241524313,4.8));
#543 = ORIENTED_EDGE('',*,*,#260,.T.);
#544 = ORIENTED_EDGE('',*,*,#194,.F.);
#545 = ORIENTED_EDGE('',*,*,#488,.F.);
#546 = ( BOUNDED_SURFACE() B_SPLINE_SURFACE(2,6,(
    (#547,#548,#549,#550,#551,#552,#553)
    ,(#554,#555,#556,#557,#558,#559,#560)
    ,(#561,#562,#563,#564,#565,#566,#567
)),.UNSPECIFIED.,.F.,.F.,.F.) B_SPLINE_SURFACE_WITH_KNOTS((3,3),(7,7),(
    0.,1.570796326795),(0.,1.570796326795),.PIECEWISE_BEZIER_KNOTS.) 
GEOMETRIC_REPRESENTATION_ITEM() RATIONAL_B_SPLINE_SURFACE((
    (1.,1.,1.,1.,1.,1.,1.)
    ,(0.704914196742,0.704914196742,0.705452560102,0.706584047715
      ,0.707543540636,0.707679875541,0.707106781187)
,(1.,1.,1.,1.,1.,1.,1.))) REPRESENTATION_ITEM('') SURFACE() );
#547 = CARTESIAN_POINT('',(73.90412793822,106.94942671043,4.8));
#548 = CARTESIAN_POINT('',(73.90412793822,106.94942671043,4.378535381138
    ));
#549 = CARTESIAN_POINT('',(74.014281569148,106.87328780325,
    3.957036923779));
#550 = CARTESIAN_POINT('',(74.235469665003,106.72054505207,
    3.589578959774));
#551 = CARTESIAN_POINT('',(74.538777195004,106.50941405658,
    3.330050465081));
#552 = CARTESIAN_POINT('',(74.881255291849,106.268401068,3.2));
#553 = CARTESIAN_POINT('',(75.222886647292,106.02602192126,3.2));
#554 = CARTESIAN_POINT('',(74.566366185919,106.49180723842,4.8));
#555 = CARTESIAN_POINT('',(74.566366185919,106.49180723842,4.58925961073
    ));
#556 = CARTESIAN_POINT('',(74.620667385987,106.45327588382,
    4.378898350626));
#557 = CARTESIAN_POINT('',(74.728889942547,106.37647914795,
    4.194763352351));
#558 = CARTESIAN_POINT('',(74.880470948338,106.26895894435,4.06309709682
    ));
#559 = CARTESIAN_POINT('',(75.052209299773,106.14711335271,
    3.998704285654));
#560 = CARTESIAN_POINT('',(75.222886647292,106.02602192126,4.));
#561 = CARTESIAN_POINT('',(74.104654940186,105.83241524313,4.8));
#562 = CARTESIAN_POINT('',(74.104654940186,105.83241524313,
    4.590564504781));
#563 = CARTESIAN_POINT('',(74.159001688634,105.79534671325,
    4.381148921843));
#564 = CARTESIAN_POINT('',(74.267845301094,105.72125304093,
    4.197443040448));
#565 = CARTESIAN_POINT('',(74.418933513298,105.61672981082,
    4.065772715167));
#566 = CARTESIAN_POINT('',(74.589911254576,105.49580128881,4.));
#567 = CARTESIAN_POINT('',(74.759976575617,105.37355409405,4.));
#568 = ADVANCED_FACE('',(#569),#588,.T.);
#569 = FACE_BOUND('',#570,.T.);
#570 = EDGE_LOOP('',(#571,#572,#573,#581));
#571 = ORIENTED_EDGE('',*,*,#524,.F.);
#572 = ORIENTED_EDGE('',*,*,#228,.T.);
#573 = ORIENTED_EDGE('',*,*,#574,.T.);
#574 = EDGE_CURVE('',#220,#575,#577,.T.);
#575 = VERTEX_POINT('',#576);
#576 = CARTESIAN_POINT('',(69.897341724082,-101.2094937241,31.2));
#577 = LINE('',#578,#579);
#578 = CARTESIAN_POINT('',(69.897341724082,-101.2094937241,4.));
#579 = VECTOR('',#580,1.);
#580 = DIRECTION('',(0.,0.,1.));
#581 = ORIENTED_EDGE('',*,*,#582,.F.);
#582 = EDGE_CURVE('',#517,#575,#583,.T.);
#583 = CIRCLE('',#584,0.8);
#584 = AXIS2_PLACEMENT_3D('',#585,#586,#587);
#585 = CARTESIAN_POINT('',(70.351958580824,-101.8677668541,31.2));
#586 = DIRECTION('',(0.,-0.,1.));
#587 = DIRECTION('',(0.819152044289,0.573576436351,0.));
#588 = CYLINDRICAL_SURFACE('',#589,0.8);
#589 = AXIS2_PLACEMENT_3D('',#590,#591,#592);
#590 = CARTESIAN_POINT('',(70.351958580824,-101.8677668541,4.));
#591 = DIRECTION('',(0.,0.,1.));
#592 = DIRECTION('',(0.819152044289,0.573576436351,0.));
#593 = ADVANCED_FACE('',(#594),#619,.T.);
#594 = FACE_BOUND('',#595,.T.);
#595 = EDGE_LOOP('',(#596,#597,#605,#613));
#596 = ORIENTED_EDGE('',*,*,#252,.T.);
#597 = ORIENTED_EDGE('',*,*,#598,.T.);
#598 = EDGE_CURVE('',#253,#599,#601,.T.);
#599 = VERTEX_POINT('',#600);
#600 = CARTESIAN_POINT('',(74.104654940186,105.83241524313,31.2));
#601 = LINE('',#602,#603);
#602 = CARTESIAN_POINT('',(74.104654940186,105.83241524313,4.));
#603 = VECTOR('',#604,1.);
#604 = DIRECTION('',(0.,0.,1.));
#605 = ORIENTED_EDGE('',*,*,#606,.F.);
#606 = EDGE_CURVE('',#607,#599,#609,.T.);
#607 = VERTEX_POINT('',#608);
#608 = CARTESIAN_POINT('',(71.007280216255,101.40890570502,31.2));
#609 = LINE('',#610,#611);
#610 = CARTESIAN_POINT('',(70.549901671179,100.75570144754,31.2));
#611 = VECTOR('',#612,1.);
#612 = DIRECTION('',(0.573576436351,0.819152044289,0.));
#613 = ORIENTED_EDGE('',*,*,#614,.F.);
#614 = EDGE_CURVE('',#244,#607,#615,.T.);
#615 = LINE('',#616,#617);
#616 = CARTESIAN_POINT('',(71.007280216255,101.40890570502,4.));
#617 = VECTOR('',#618,1.);
#618 = DIRECTION('',(0.,0.,1.));
#619 = PLANE('',#620);
#620 = AXIS2_PLACEMENT_3D('',#621,#622,#623);
#621 = CARTESIAN_POINT('',(0.,0.,-6.));
#622 = DIRECTION('',(0.819152044289,-0.573576436351,0.));
#623 = DIRECTION('',(0.573576436351,0.819152044289,0.));
#624 = ADVANCED_FACE('',(#625),#644,.F.);
#625 = FACE_BOUND('',#626,.F.);
#626 = EDGE_LOOP('',(#627,#628,#629,#638));
#627 = ORIENTED_EDGE('',*,*,#290,.T.);
#628 = ORIENTED_EDGE('',*,*,#574,.T.);
#629 = ORIENTED_EDGE('',*,*,#630,.F.);
#630 = EDGE_CURVE('',#631,#575,#633,.T.);
#631 = VERTEX_POINT('',#632);
#632 = CARTESIAN_POINT('',(69.897341724082,101.20949372419,31.2));
#633 = CIRCLE('',#634,123.);
#634 = AXIS2_PLACEMENT_3D('',#635,#636,#637);
#635 = CARTESIAN_POINT('',(0.,0.,31.2));
#636 = DIRECTION('',(0.,-0.,1.));
#637 = DIRECTION('',(0.573576436351,0.819152044289,0.));
#638 = ORIENTED_EDGE('',*,*,#639,.F.);
#639 = EDGE_CURVE('',#280,#631,#640,.T.);
#640 = LINE('',#641,#642);
#641 = CARTESIAN_POINT('',(69.897341724082,101.20949372419,4.));
#642 = VECTOR('',#643,1.);
#643 = DIRECTION('',(0.,0.,1.));
#644 = CYLINDRICAL_SURFACE('',#645,123.);
#645 = AXIS2_PLACEMENT_3D('',#646,#647,#648);
#646 = CARTESIAN_POINT('',(0.,0.,2.));
#647 = DIRECTION('',(0.,0.,1.));
#648 = DIRECTION('',(1.,0.,0.));
#649 = ADVANCED_FACE('',(#650),#662,.T.);
#650 = FACE_BOUND('',#651,.T.);
#651 = EDGE_LOOP('',(#652,#653,#654,#655));
#652 = ORIENTED_EDGE('',*,*,#639,.F.);
#653 = ORIENTED_EDGE('',*,*,#308,.T.);
#654 = ORIENTED_EDGE('',*,*,#614,.T.);
#655 = ORIENTED_EDGE('',*,*,#656,.T.);
#656 = EDGE_CURVE('',#607,#631,#657,.T.);
#657 = CIRCLE('',#658,0.8);
#658 = AXIS2_PLACEMENT_3D('',#659,#660,#661);
#659 = CARTESIAN_POINT('',(70.351958580824,101.8677668541,31.2));
#660 = DIRECTION('',(0.,-0.,-1.));
#661 = DIRECTION('',(0.819152044289,-0.573576436351,0.));
#662 = CYLINDRICAL_SURFACE('',#663,0.8);
#663 = AXIS2_PLACEMENT_3D('',#664,#665,#666);
#664 = CARTESIAN_POINT('',(70.351958580824,101.8677668541,4.));
#665 = DIRECTION('',(0.,0.,1.));
#666 = DIRECTION('',(-0.568271070927,-0.822841412392,0.));
#667 = ADVANCED_FACE('',(#668),#687,.F.);
#668 = FACE_BOUND('',#669,.F.);
#669 = EDGE_LOOP('',(#670,#678,#679,#680));
#670 = ORIENTED_EDGE('',*,*,#671,.T.);
#671 = EDGE_CURVE('',#672,#324,#674,.T.);
#672 = VERTEX_POINT('',#673);
#673 = CARTESIAN_POINT('',(-96.48680304487,-36.93817547917,0.8));
#674 = LINE('',#675,#676);
#675 = CARTESIAN_POINT('',(-96.48680304487,-36.93817547917,-2.));
#676 = VECTOR('',#677,1.);
#677 = DIRECTION('',(0.,0.,1.));
#678 = ORIENTED_EDGE('',*,*,#334,.F.);
#679 = ORIENTED_EDGE('',*,*,#671,.F.);
#680 = ORIENTED_EDGE('',*,*,#681,.T.);
#681 = EDGE_CURVE('',#672,#672,#682,.T.);
#682 = CIRCLE('',#683,5.);
#683 = AXIS2_PLACEMENT_3D('',#684,#685,#686);
#684 = CARTESIAN_POINT('',(-101.4868030448,-36.93817547917,0.8));
#685 = DIRECTION('',(0.,0.,1.));
#686 = DIRECTION('',(1.,0.,0.));
#687 = CYLINDRICAL_SURFACE('',#688,5.);
#688 = AXIS2_PLACEMENT_3D('',#689,#690,#691);
#689 = CARTESIAN_POINT('',(-101.4868030448,-36.93817547917,-2.));
#690 = DIRECTION('',(0.,0.,1.));
#691 = DIRECTION('',(1.,0.,0.));
#692 = ADVANCED_FACE('',(#693),#712,.F.);
#693 = FACE_BOUND('',#694,.F.);
#694 = EDGE_LOOP('',(#695,#703,#704,#705));
#695 = ORIENTED_EDGE('',*,*,#696,.T.);
#696 = EDGE_CURVE('',#697,#350,#699,.T.);
#697 = VERTEX_POINT('',#698);
#698 = CARTESIAN_POINT('',(-103.,1.322618543079E-14,0.8));
#699 = LINE('',#700,#701);
#700 = CARTESIAN_POINT('',(-103.,1.200153863164E-14,-2.));
#701 = VECTOR('',#702,1.);
#702 = DIRECTION('',(0.,0.,1.));
#703 = ORIENTED_EDGE('',*,*,#360,.F.);
#704 = ORIENTED_EDGE('',*,*,#696,.F.);
#705 = ORIENTED_EDGE('',*,*,#706,.T.);
#706 = EDGE_CURVE('',#697,#697,#707,.T.);
#707 = CIRCLE('',#708,5.);
#708 = AXIS2_PLACEMENT_3D('',#709,#710,#711);
#709 = CARTESIAN_POINT('',(-108.,1.322618543079E-14,0.8));
#710 = DIRECTION('',(0.,0.,1.));
#711 = DIRECTION('',(1.,0.,0.));
#712 = CYLINDRICAL_SURFACE('',#713,5.);
#713 = AXIS2_PLACEMENT_3D('',#714,#715,#716);
#714 = CARTESIAN_POINT('',(-108.,1.322618543079E-14,-2.));
#715 = DIRECTION('',(0.,0.,1.));
#716 = DIRECTION('',(1.,0.,0.));
#717 = ADVANCED_FACE('',(#718),#737,.F.);
#718 = FACE_BOUND('',#719,.F.);
#719 = EDGE_LOOP('',(#720,#728,#729,#730));
#720 = ORIENTED_EDGE('',*,*,#721,.T.);
#721 = EDGE_CURVE('',#722,#376,#724,.T.);
#722 = VERTEX_POINT('',#723);
#723 = CARTESIAN_POINT('',(-96.48680304487,36.938175479172,0.8));
#724 = LINE('',#725,#726);
#725 = CARTESIAN_POINT('',(-96.48680304487,36.938175479172,-2.));
#726 = VECTOR('',#727,1.);
#727 = DIRECTION('',(0.,0.,1.));
#728 = ORIENTED_EDGE('',*,*,#386,.F.);
#729 = ORIENTED_EDGE('',*,*,#721,.F.);
#730 = ORIENTED_EDGE('',*,*,#731,.T.);
#731 = EDGE_CURVE('',#722,#722,#732,.T.);
#732 = CIRCLE('',#733,5.);
#733 = AXIS2_PLACEMENT_3D('',#734,#735,#736);
#734 = CARTESIAN_POINT('',(-101.4868030448,36.938175479172,0.8));
#735 = DIRECTION('',(0.,0.,1.));
#736 = DIRECTION('',(1.,0.,0.));
#737 = CYLINDRICAL_SURFACE('',#738,5.);
#738 = AXIS2_PLACEMENT_3D('',#739,#740,#741);
#739 = CARTESIAN_POINT('',(-101.4868030448,36.938175479172,-2.));
#740 = DIRECTION('',(0.,0.,1.));
#741 = DIRECTION('',(1.,0.,0.));
#742 = ADVANCED_FACE('',(#743),#755,.T.);
#743 = FACE_BOUND('',#744,.T.);
#744 = EDGE_LOOP('',(#745,#746,#747,#754));
#745 = ORIENTED_EDGE('',*,*,#401,.T.);
#746 = ORIENTED_EDGE('',*,*,#508,.T.);
#747 = ORIENTED_EDGE('',*,*,#748,.F.);
#748 = EDGE_CURVE('',#464,#509,#749,.T.);
#749 = CIRCLE('',#750,0.8);
#750 = AXIS2_PLACEMENT_3D('',#751,#752,#753);
#751 = CARTESIAN_POINT('',(73.449333304754,-106.2912763922,31.2));
#752 = DIRECTION('',(-0.,0.,1.));
#753 = DIRECTION('',(0.568493291832,-0.822687897773,0.));
#754 = ORIENTED_EDGE('',*,*,#463,.F.);
#755 = CYLINDRICAL_SURFACE('',#756,0.8);
#756 = AXIS2_PLACEMENT_3D('',#757,#758,#759);
#757 = CARTESIAN_POINT('',(73.449333304754,-106.2912763922,4.));
#758 = DIRECTION('',(0.,0.,1.));
#759 = DIRECTION('',(0.568493291832,-0.822687897773,0.));
#760 = ADVANCED_FACE('',(#761),#781,.T.);
#761 = FACE_BOUND('',#762,.F.);
#762 = EDGE_LOOP('',(#763,#772,#773,#774));
#763 = ORIENTED_EDGE('',*,*,#764,.F.);
#764 = EDGE_CURVE('',#447,#765,#767,.T.);
#765 = VERTEX_POINT('',#766);
#766 = CARTESIAN_POINT('',(129.2,0.,0.));
#767 = CIRCLE('',#768,0.8);
#768 = AXIS2_PLACEMENT_3D('',#769,#770,#771);
#769 = CARTESIAN_POINT('',(129.2,0.,0.8));
#770 = DIRECTION('',(-0.,1.,0.));
#771 = DIRECTION('',(1.,0.,0.));
#772 = ORIENTED_EDGE('',*,*,#453,.F.);
#773 = ORIENTED_EDGE('',*,*,#764,.T.);
#774 = ORIENTED_EDGE('',*,*,#775,.T.);
#775 = EDGE_CURVE('',#765,#765,#776,.T.);
#776 = CIRCLE('',#777,129.2);
#777 = AXIS2_PLACEMENT_3D('',#778,#779,#780);
#778 = CARTESIAN_POINT('',(0.,0.,0.));
#779 = DIRECTION('',(0.,0.,1.));
#780 = DIRECTION('',(1.,0.,0.));
#781 = TOROIDAL_SURFACE('',#782,129.2,0.8);
#782 = AXIS2_PLACEMENT_3D('',#783,#784,#785);
#783 = CARTESIAN_POINT('',(0.,0.,0.8));
#784 = DIRECTION('',(-0.,-0.,-1.));
#785 = DIRECTION('',(1.,0.,0.));
#786 = ADVANCED_FACE('',(#787),#799,.T.);
#787 = FACE_BOUND('',#788,.F.);
#788 = EDGE_LOOP('',(#789,#790,#791,#798));
#789 = ORIENTED_EDGE('',*,*,#538,.T.);
#790 = ORIENTED_EDGE('',*,*,#598,.T.);
#791 = ORIENTED_EDGE('',*,*,#792,.F.);
#792 = EDGE_CURVE('',#472,#599,#793,.T.);
#793 = CIRCLE('',#794,0.8);
#794 = AXIS2_PLACEMENT_3D('',#795,#796,#797);
#795 = CARTESIAN_POINT('',(73.449333304754,106.29127639221,31.2));
#796 = DIRECTION('',(0.,0.,-1.));
#797 = DIRECTION('',(0.568493291832,0.822687897773,0.));
#798 = ORIENTED_EDGE('',*,*,#480,.F.);
#799 = CYLINDRICAL_SURFACE('',#800,0.8);
#800 = AXIS2_PLACEMENT_3D('',#801,#802,#803);
#801 = CARTESIAN_POINT('',(73.449333304754,106.29127639221,4.));
#802 = DIRECTION('',(0.,0.,1.));
#803 = DIRECTION('',(0.568493291832,0.822687897773,0.));
#804 = ADVANCED_FACE('',(#805),#833,.T.);
#805 = FACE_BOUND('',#806,.T.);
#806 = EDGE_LOOP('',(#807,#816,#817,#826));
#807 = ORIENTED_EDGE('',*,*,#808,.T.);
#808 = EDGE_CURVE('',#809,#472,#811,.T.);
#809 = VERTEX_POINT('',#810);
#810 = CARTESIAN_POINT('',(73.449333304754,106.29127639221,32.));
#811 = CIRCLE('',#812,0.8);
#812 = AXIS2_PLACEMENT_3D('',#813,#814,#815);
#813 = CARTESIAN_POINT('',(73.449333304754,106.29127639221,31.2));
#814 = DIRECTION('',(-0.822687897773,0.568493291832,0.));
#815 = DIRECTION('',(0.568493291832,0.822687897773,0.));
#816 = ORIENTED_EDGE('',*,*,#471,.T.);
#817 = ORIENTED_EDGE('',*,*,#818,.F.);
#818 = EDGE_CURVE('',#819,#464,#821,.T.);
#819 = VERTEX_POINT('',#820);
#820 = CARTESIAN_POINT('',(73.449333304754,-106.2912763922,32.));
#821 = CIRCLE('',#822,0.8);
#822 = AXIS2_PLACEMENT_3D('',#823,#824,#825);
#823 = CARTESIAN_POINT('',(73.449333304754,-106.2912763922,31.2));
#824 = DIRECTION('',(0.822687897773,0.568493291832,0.));
#825 = DIRECTION('',(0.568493291832,-0.822687897773,0.));
#826 = ORIENTED_EDGE('',*,*,#827,.F.);
#827 = EDGE_CURVE('',#809,#819,#828,.T.);
#828 = CIRCLE('',#829,129.2);
#829 = AXIS2_PLACEMENT_3D('',#830,#831,#832);
#830 = CARTESIAN_POINT('',(0.,0.,32.));
#831 = DIRECTION('',(0.,-0.,1.));
#832 = DIRECTION('',(0.573576436351,0.819152044289,0.));
#833 = TOROIDAL_SURFACE('',#834,129.2,0.8);
#834 = AXIS2_PLACEMENT_3D('',#835,#836,#837);
#835 = CARTESIAN_POINT('',(0.,0.,31.2));
#836 = DIRECTION('',(0.,0.,1.));
#837 = DIRECTION('',(0.573576436351,0.819152044289,0.));
#838 = ADVANCED_FACE('',(#839),#864,.T.);
#839 = FACE_BOUND('',#840,.T.);
#840 = EDGE_LOOP('',(#841,#850,#856,#863));
#841 = ORIENTED_EDGE('',*,*,#842,.F.);
#842 = EDGE_CURVE('',#843,#517,#845,.T.);
#843 = VERTEX_POINT('',#844);
#844 = CARTESIAN_POINT('',(70.351958580824,-101.8677668541,32.));
#845 = CIRCLE('',#846,0.8);
#846 = AXIS2_PLACEMENT_3D('',#847,#848,#849);
#847 = CARTESIAN_POINT('',(70.351958580824,-101.8677668541,31.2));
#848 = DIRECTION('',(-0.573576436351,0.819152044289,0.));
#849 = DIRECTION('',(0.819152044289,0.573576436351,0.));
#850 = ORIENTED_EDGE('',*,*,#851,.T.);
#851 = EDGE_CURVE('',#843,#819,#852,.T.);
#852 = LINE('',#853,#854);
#853 = CARTESIAN_POINT('',(69.894580035747,-101.2145625966,32.));
#854 = VECTOR('',#855,1.);
#855 = DIRECTION('',(0.573576436351,-0.819152044289,0.));
#856 = ORIENTED_EDGE('',*,*,#857,.T.);
#857 = EDGE_CURVE('',#819,#509,#858,.T.);
#858 = CIRCLE('',#859,0.8);
#859 = AXIS2_PLACEMENT_3D('',#860,#861,#862);
#860 = CARTESIAN_POINT('',(73.449333304754,-106.2912763922,31.2));
#861 = DIRECTION('',(-0.573576436351,0.819152044289,0.));
#862 = DIRECTION('',(0.819152044289,0.573576436351,0.));
#863 = ORIENTED_EDGE('',*,*,#516,.F.);
#864 = CYLINDRICAL_SURFACE('',#865,0.8);
#865 = AXIS2_PLACEMENT_3D('',#866,#867,#868);
#866 = CARTESIAN_POINT('',(69.894580035747,-101.2145625966,31.2));
#867 = DIRECTION('',(0.573576436351,-0.819152044289,0.));
#868 = DIRECTION('',(0.819152044289,0.573576436351,0.));
#869 = ADVANCED_FACE('',(#870),#881,.T.);
#870 = FACE_BOUND('',#871,.F.);
#871 = EDGE_LOOP('',(#872,#873,#880));
#872 = ORIENTED_EDGE('',*,*,#842,.F.);
#873 = ORIENTED_EDGE('',*,*,#874,.T.);
#874 = EDGE_CURVE('',#843,#575,#875,.T.);
#875 = CIRCLE('',#876,0.8);
#876 = AXIS2_PLACEMENT_3D('',#877,#878,#879);
#877 = CARTESIAN_POINT('',(70.351958580824,-101.8677668541,31.2));
#878 = DIRECTION('',(-0.822841412392,-0.568271070928,-0.));
#879 = DIRECTION('',(-0.568271070928,0.822841412392,0.));
#880 = ORIENTED_EDGE('',*,*,#582,.F.);
#881 = SPHERICAL_SURFACE('',#882,0.8);
#882 = AXIS2_PLACEMENT_3D('',#883,#884,#885);
#883 = CARTESIAN_POINT('',(70.351958580824,-101.8677668541,31.2));
#884 = DIRECTION('',(-0.,-0.,-1.));
#885 = DIRECTION('',(0.819152044289,0.573576436351,0.));
#886 = ADVANCED_FACE('',(#887),#912,.T.);
#887 = FACE_BOUND('',#888,.F.);
#888 = EDGE_LOOP('',(#889,#898,#904,#911));
#889 = ORIENTED_EDGE('',*,*,#890,.F.);
#890 = EDGE_CURVE('',#891,#607,#893,.T.);
#891 = VERTEX_POINT('',#892);
#892 = CARTESIAN_POINT('',(70.351958580824,101.8677668541,32.));
#893 = CIRCLE('',#894,0.8);
#894 = AXIS2_PLACEMENT_3D('',#895,#896,#897);
#895 = CARTESIAN_POINT('',(70.351958580824,101.8677668541,31.2));
#896 = DIRECTION('',(0.573576436351,0.819152044289,0.));
#897 = DIRECTION('',(0.819152044289,-0.573576436351,0.));
#898 = ORIENTED_EDGE('',*,*,#899,.T.);
#899 = EDGE_CURVE('',#891,#809,#900,.T.);
#900 = LINE('',#901,#902);
#901 = CARTESIAN_POINT('',(69.894580035747,101.21456259662,32.));
#902 = VECTOR('',#903,1.);
#903 = DIRECTION('',(0.573576436351,0.819152044289,0.));
#904 = ORIENTED_EDGE('',*,*,#905,.T.);
#905 = EDGE_CURVE('',#809,#599,#906,.T.);
#906 = CIRCLE('',#907,0.8);
#907 = AXIS2_PLACEMENT_3D('',#908,#909,#910);
#908 = CARTESIAN_POINT('',(73.449333304754,106.29127639221,31.2));
#909 = DIRECTION('',(0.573576436351,0.819152044289,0.));
#910 = DIRECTION('',(0.819152044289,-0.573576436351,0.));
#911 = ORIENTED_EDGE('',*,*,#606,.F.);
#912 = CYLINDRICAL_SURFACE('',#913,0.8);
#913 = AXIS2_PLACEMENT_3D('',#914,#915,#916);
#914 = CARTESIAN_POINT('',(69.894580035747,101.21456259662,31.2));
#915 = DIRECTION('',(0.573576436351,0.819152044289,0.));
#916 = DIRECTION('',(0.819152044289,-0.573576436351,0.));
#917 = ADVANCED_FACE('',(#918),#936,.T.);
#918 = FACE_BOUND('',#919,.F.);
#919 = EDGE_LOOP('',(#920,#927,#928,#929));
#920 = ORIENTED_EDGE('',*,*,#921,.T.);
#921 = EDGE_CURVE('',#891,#631,#922,.T.);
#922 = CIRCLE('',#923,0.8);
#923 = AXIS2_PLACEMENT_3D('',#924,#925,#926);
#924 = CARTESIAN_POINT('',(70.351958580824,101.8677668541,31.2));
#925 = DIRECTION('',(0.822841412392,-0.568271070927,0.));
#926 = DIRECTION('',(-0.568271070927,-0.822841412392,0.));
#927 = ORIENTED_EDGE('',*,*,#630,.T.);
#928 = ORIENTED_EDGE('',*,*,#874,.F.);
#929 = ORIENTED_EDGE('',*,*,#930,.F.);
#930 = EDGE_CURVE('',#891,#843,#931,.T.);
#931 = CIRCLE('',#932,123.8);
#932 = AXIS2_PLACEMENT_3D('',#933,#934,#935);
#933 = CARTESIAN_POINT('',(0.,0.,32.));
#934 = DIRECTION('',(0.,-0.,1.));
#935 = DIRECTION('',(0.573576436351,0.819152044289,0.));
#936 = TOROIDAL_SURFACE('',#937,123.8,0.8);
#937 = AXIS2_PLACEMENT_3D('',#938,#939,#940);
#938 = CARTESIAN_POINT('',(0.,0.,31.2));
#939 = DIRECTION('',(-0.,-0.,-1.));
#940 = DIRECTION('',(0.573576436351,0.819152044289,0.));
#941 = ADVANCED_FACE('',(#942),#947,.T.);
#942 = FACE_BOUND('',#943,.T.);
#943 = EDGE_LOOP('',(#944,#945,#946));
#944 = ORIENTED_EDGE('',*,*,#890,.F.);
#945 = ORIENTED_EDGE('',*,*,#921,.T.);
#946 = ORIENTED_EDGE('',*,*,#656,.F.);
#947 = SPHERICAL_SURFACE('',#948,0.8);
#948 = AXIS2_PLACEMENT_3D('',#949,#950,#951);
#949 = CARTESIAN_POINT('',(70.351958580824,101.8677668541,31.2));
#950 = DIRECTION('',(-0.,-0.,-1.));
#951 = DIRECTION('',(0.819152044289,-0.573576436351,0.));
#952 = ADVANCED_FACE('',(#953),#973,.T.);
#953 = FACE_BOUND('',#954,.T.);
#954 = EDGE_LOOP('',(#955,#964,#965,#966));
#955 = ORIENTED_EDGE('',*,*,#956,.F.);
#956 = EDGE_CURVE('',#672,#957,#959,.T.);
#957 = VERTEX_POINT('',#958);
#958 = CARTESIAN_POINT('',(-95.68680304487,-36.93817547917,0.));
#959 = CIRCLE('',#960,0.8);
#960 = AXIS2_PLACEMENT_3D('',#961,#962,#963);
#961 = CARTESIAN_POINT('',(-95.68680304487,-36.93817547917,0.8));
#962 = DIRECTION('',(0.,-1.,0.));
#963 = DIRECTION('',(1.,0.,0.));
#964 = ORIENTED_EDGE('',*,*,#681,.T.);
#965 = ORIENTED_EDGE('',*,*,#956,.T.);
#966 = ORIENTED_EDGE('',*,*,#967,.F.);
#967 = EDGE_CURVE('',#957,#957,#968,.T.);
#968 = CIRCLE('',#969,5.8);
#969 = AXIS2_PLACEMENT_3D('',#970,#971,#972);
#970 = CARTESIAN_POINT('',(-101.4868030448,-36.93817547917,0.));
#971 = DIRECTION('',(0.,0.,1.));
#972 = DIRECTION('',(1.,0.,0.));
#973 = TOROIDAL_SURFACE('',#974,5.8,0.8);
#974 = AXIS2_PLACEMENT_3D('',#975,#976,#977);
#975 = CARTESIAN_POINT('',(-101.4868030448,-36.93817547917,0.8));
#976 = DIRECTION('',(0.,0.,1.));
#977 = DIRECTION('',(1.,0.,0.));
#978 = ADVANCED_FACE('',(#979),#999,.T.);
#979 = FACE_BOUND('',#980,.T.);
#980 = EDGE_LOOP('',(#981,#990,#991,#992));
#981 = ORIENTED_EDGE('',*,*,#982,.F.);
#982 = EDGE_CURVE('',#697,#983,#985,.T.);
#983 = VERTEX_POINT('',#984);
#984 = CARTESIAN_POINT('',(-102.2,1.322618543079E-14,0.));
#985 = CIRCLE('',#986,0.8);
#986 = AXIS2_PLACEMENT_3D('',#987,#988,#989);
#987 = CARTESIAN_POINT('',(-102.2,1.322618543079E-14,0.8));
#988 = DIRECTION('',(0.,-1.,0.));
#989 = DIRECTION('',(1.,0.,0.));
#990 = ORIENTED_EDGE('',*,*,#706,.T.);
#991 = ORIENTED_EDGE('',*,*,#982,.T.);
#992 = ORIENTED_EDGE('',*,*,#993,.F.);
#993 = EDGE_CURVE('',#983,#983,#994,.T.);
#994 = CIRCLE('',#995,5.8);
#995 = AXIS2_PLACEMENT_3D('',#996,#997,#998);
#996 = CARTESIAN_POINT('',(-108.,1.322618543079E-14,0.));
#997 = DIRECTION('',(0.,0.,1.));
#998 = DIRECTION('',(1.,0.,0.));
#999 = TOROIDAL_SURFACE('',#1000,5.8,0.8);
#1000 = AXIS2_PLACEMENT_3D('',#1001,#1002,#1003);
#1001 = CARTESIAN_POINT('',(-108.,1.322618543079E-14,0.8));
#1002 = DIRECTION('',(0.,0.,1.));
#1003 = DIRECTION('',(1.,0.,0.));
#1004 = ADVANCED_FACE('',(#1005),#1025,.T.);
#1005 = FACE_BOUND('',#1006,.T.);
#1006 = EDGE_LOOP('',(#1007,#1016,#1017,#1018));
#1007 = ORIENTED_EDGE('',*,*,#1008,.F.);
#1008 = EDGE_CURVE('',#722,#1009,#1011,.T.);
#1009 = VERTEX_POINT('',#1010);
#1010 = CARTESIAN_POINT('',(-95.68680304487,36.938175479172,0.));
#1011 = CIRCLE('',#1012,0.8);
#1012 = AXIS2_PLACEMENT_3D('',#1013,#1014,#1015);
#1013 = CARTESIAN_POINT('',(-95.68680304487,36.938175479172,0.8));
#1014 = DIRECTION('',(0.,-1.,0.));
#1015 = DIRECTION('',(1.,0.,0.));
#1016 = ORIENTED_EDGE('',*,*,#731,.T.);
#1017 = ORIENTED_EDGE('',*,*,#1008,.T.);
#1018 = ORIENTED_EDGE('',*,*,#1019,.F.);
#1019 = EDGE_CURVE('',#1009,#1009,#1020,.T.);
#1020 = CIRCLE('',#1021,5.8);
#1021 = AXIS2_PLACEMENT_3D('',#1022,#1023,#1024);
#1022 = CARTESIAN_POINT('',(-101.4868030448,36.938175479172,0.));
#1023 = DIRECTION('',(0.,0.,1.));
#1024 = DIRECTION('',(1.,0.,0.));
#1025 = TOROIDAL_SURFACE('',#1026,5.8,0.8);
#1026 = AXIS2_PLACEMENT_3D('',#1027,#1028,#1029);
#1027 = CARTESIAN_POINT('',(-101.4868030448,36.938175479172,0.8));
#1028 = DIRECTION('',(0.,0.,1.));
#1029 = DIRECTION('',(1.,0.,0.));
#1030 = ADVANCED_FACE('',(#1031),#1036,.T.);
#1031 = FACE_BOUND('',#1032,.F.);
#1032 = EDGE_LOOP('',(#1033,#1034,#1035));
#1033 = ORIENTED_EDGE('',*,*,#818,.F.);
#1034 = ORIENTED_EDGE('',*,*,#857,.T.);
#1035 = ORIENTED_EDGE('',*,*,#748,.F.);
#1036 = SPHERICAL_SURFACE('',#1037,0.8);
#1037 = AXIS2_PLACEMENT_3D('',#1038,#1039,#1040);
#1038 = CARTESIAN_POINT('',(73.449333304754,-106.2912763922,31.2));
#1039 = DIRECTION('',(-0.,-0.,-1.));
#1040 = DIRECTION('',(0.568493291832,-0.822687897773,0.));
#1041 = ADVANCED_FACE('',(#1042,#1045,#1048,#1051),#1054,.F.);
#1042 = FACE_BOUND('',#1043,.F.);
#1043 = EDGE_LOOP('',(#1044));
#1044 = ORIENTED_EDGE('',*,*,#775,.T.);
#1045 = FACE_BOUND('',#1046,.F.);
#1046 = EDGE_LOOP('',(#1047));
#1047 = ORIENTED_EDGE('',*,*,#967,.F.);
#1048 = FACE_BOUND('',#1049,.F.);
#1049 = EDGE_LOOP('',(#1050));
#1050 = ORIENTED_EDGE('',*,*,#993,.F.);
#1051 = FACE_BOUND('',#1052,.F.);
#1052 = EDGE_LOOP('',(#1053));
#1053 = ORIENTED_EDGE('',*,*,#1019,.F.);
#1054 = PLANE('',#1055);
#1055 = AXIS2_PLACEMENT_3D('',#1056,#1057,#1058);
#1056 = CARTESIAN_POINT('',(0.,0.,0.));
#1057 = DIRECTION('',(0.,0.,1.));
#1058 = DIRECTION('',(1.,0.,0.));
#1059 = ADVANCED_FACE('',(#1060),#1065,.T.);
#1060 = FACE_BOUND('',#1061,.T.);
#1061 = EDGE_LOOP('',(#1062,#1063,#1064));
#1062 = ORIENTED_EDGE('',*,*,#808,.F.);
#1063 = ORIENTED_EDGE('',*,*,#905,.T.);
#1064 = ORIENTED_EDGE('',*,*,#792,.F.);
#1065 = SPHERICAL_SURFACE('',#1066,0.8);
#1066 = AXIS2_PLACEMENT_3D('',#1067,#1068,#1069);
#1067 = CARTESIAN_POINT('',(73.449333304754,106.29127639221,31.2));
#1068 = DIRECTION('',(-0.,-0.,-1.));
#1069 = DIRECTION('',(0.568493291832,0.822687897773,0.));
#1070 = ADVANCED_FACE('',(#1071),#1077,.T.);
#1071 = FACE_BOUND('',#1072,.T.);
#1072 = EDGE_LOOP('',(#1073,#1074,#1075,#1076));
#1073 = ORIENTED_EDGE('',*,*,#827,.T.);
#1074 = ORIENTED_EDGE('',*,*,#851,.F.);
#1075 = ORIENTED_EDGE('',*,*,#930,.F.);
#1076 = ORIENTED_EDGE('',*,*,#899,.T.);
#1077 = PLANE('',#1078);
#1078 = AXIS2_PLACEMENT_3D('',#1079,#1080,#1081);
#1079 = CARTESIAN_POINT('',(0.,0.,32.));
#1080 = DIRECTION('',(0.,0.,1.));
#1081 = DIRECTION('',(1.,0.,0.));
#1082 = ( GEOMETRIC_REPRESENTATION_CONTEXT(3) 
GLOBAL_UNCERTAINTY_ASSIGNED_CONTEXT((#1086)) 
GLOBAL_UNIT_ASSIGNED_CONTEXT((#1083,#1084,#1085)) REPRESENTATION_CONTEXT
('Context #1','3D Context with UNIT and UNCERTAINTY') );
#1083 = ( LENGTH_UNIT() NAMED_UNIT(*) SI_UNIT(.MILLI.,.METRE.) );
#1084 = ( NAMED_UNIT(*) PLANE_ANGLE_UNIT() SI_UNIT($,.RADIAN.) );
#1085 = ( NAMED_UNIT(*) SI_UNIT($,.STERADIAN.) SOLID_ANGLE_UNIT() );
#1086 = UNCERTAINTY_MEASURE_WITH_UNIT(LENGTH_MEASURE(2.E-06),#1083,
  'distance_accuracy_value','confusion accuracy');
#1087 = PRODUCT_RELATED_PRODUCT_CATEGORY('part',$,(#7));
ENDSEC;
END-ISO-10303-21;
